<svg width="250" height="125" xmlns="http://www.w3.org/2000/svg" xmlns:xlink="http://www.w3.org/1999/xlink" overflow="hidden"><defs><clipPath id="clip0"><rect x="0" y="0" width="250" height="125"/></clipPath></defs><g clip-path="url(#clip0)"><rect x="0" y="0" width="250" height="125" fill="#FFFFFF"/><rect x="48.5" y="30.5" width="18.9999" height="10" stroke="#2F528F" stroke-width="1.33511" stroke-miterlimit="8" fill="#4472C4"/><rect x="48.5" y="43.5" width="18.9999" height="10" stroke="#2F528F" stroke-width="1.33511" stroke-miterlimit="8" fill="#4472C4"/><rect x="48.5" y="57.5" width="18.9999" height="9.00003" stroke="#2F528F" stroke-width="1.33511" stroke-miterlimit="8" fill="#4472C4"/><rect x="48.5" y="70.5" width="18.9999" height="10" stroke="#2F528F" stroke-width="1.33511" stroke-miterlimit="8" fill="#4472C4"/><rect x="48.5" y="84.5" width="18.9999" height="9.00003" stroke="#2F528F" stroke-width="1.33511" stroke-miterlimit="8" fill="#4472C4"/><rect x="121.5" y="57.5" width="16" height="9.00003" stroke="#AE5A21" stroke-width="1.33511" stroke-miterlimit="8" fill="#ED7D31"/><path d="M3.99998 62C3.99998 61.4477 4.4477 61 5 61 5.5523 61 6.00002 61.4477 6.00002 62 6.00002 62.5523 5.5523 63 5 63 4.4477 63 3.99998 62.5523 3.99998 62Z" stroke="#2F528F" stroke-width="2.00267" stroke-miterlimit="8" fill="#4472C4" fill-rule="evenodd"/><path d="M0-1.00134 21.7014-1.00134 21.7014 26.8878 20.7001 25.8865 37.3948 25.8865 37.3948 27.8892 19.6988 27.8892 19.6988 0 20.7001 1.00134 0 1.00134ZM36.0597 24.2176 41.4002 26.8878 36.0597 29.558Z" transform="matrix(1 0 0 -1 6.00002 61.8879)"/><path d="M0-1.00134 21.7014-1.00134 21.7014 13.4736 20.7001 12.4723 37.3948 12.4723 37.3948 14.4749 19.6988 14.4749 19.6988 0 20.7001 1.00134 0 1.00134ZM36.0597 10.8034 41.4002 13.4736 36.0597 16.1438Z" transform="matrix(1 0 0 -1 6.00002 61.4736)"/><path d="M0-1.00134 21.7015-1.00134 21.7015 0.0593968 20.7001-0.941938 37.3948-0.941938 37.3948 1.06073 19.6988 1.06073 19.6988 0 20.7001 1.00134 0 1.00134ZM36.0597-2.61083 41.4002 0.0593968 36.0597 2.72962Z" transform="matrix(1 0 0 -1 6.00002 62.0594)"/><path d="M6.00002 60.9987 27.7014 60.9987 27.7014 75.355 26.7001 74.3536 43.3949 74.3536 43.3949 76.3563 25.6988 76.3563 25.6988 62 26.7001 63.0014 6.00002 63.0014ZM42.0598 72.6847 47.4002 75.355 42.0598 78.0252Z"/><path d="M6.00002 60.9987 27.7014 60.9987 27.7014 88.7691 26.7001 87.7677 43.3949 87.7677 43.3949 89.7704 25.6988 89.7704 25.6988 62 26.7001 63.0014 6.00002 63.0014ZM42.0598 86.0988 47.4002 88.7691 42.0598 91.4393Z"/><path d="M242.194 60 242.194 15.6909 4.99994 15.6909 4.99994 60.5006" stroke="#000000" stroke-width="2.00267" stroke-miterlimit="8" fill="none" fill-rule="evenodd"/><path d="M242 61C242 60.4477 242.224 60 242.5 60 242.776 60 243 60.4477 243 61 243 61.5523 242.776 62 242.5 62 242.224 62 242 61.5523 242 61Z" stroke="#2F528F" stroke-width="2.00267" stroke-miterlimit="8" fill="#4472C4" fill-rule="evenodd"/><rect x="76.5" y="6.50001" width="106" height="19" stroke="#7F7F7F" stroke-width="1.33511" stroke-miterlimit="8" fill="#FFFFFF"/><text font-family="Consolas,Consolas_MSFontService,sans-serif" font-weight="400" font-size="11" transform="matrix(1 0 0 1 78.5922 19)">Select Next Tasks</text><rect x="27.5" y="99.5" width="53" height="19" stroke="#7F7F7F" stroke-width="1.33511" stroke-miterlimit="8" fill="#FFFFFF"/><text font-family="Consolas,Consolas_MSFontService,sans-serif" font-weight="400" font-size="11" transform="matrix(1 0 0 1 29.6046 112)">Simulate</text><rect x="97.5" y="99.5" width="64" height="19" stroke="#7F7F7F" stroke-width="1.33511" stroke-miterlimit="8" fill="#FFFFFF"/><text font-family="Consolas,Consolas_MSFontService,sans-serif" font-weight="400" font-size="11" transform="matrix(1 0 0 1 99.5717 112)">(Re<tspan font-size="11" x="17.5234" y="0">-</tspan><tspan font-size="11" x="23.3645" y="0">)Train</tspan></text><rect x="184.5" y="99.5" width="36" height="19" stroke="#7F7F7F" stroke-width="1.33511" stroke-miterlimit="8" fill="#FFFFFF"/><text font-family="Consolas,Consolas_MSFontService,sans-serif" font-weight="400" font-size="11" transform="matrix(1 0 0 1 187.343 112)">Infer</text><path d="M67 33.9987 95.4538 33.9987 95.4538 61.6081 94.4525 60.6068 117.9 60.6068 117.9 62.6095 93.4512 62.6095 93.4512 35.0001 94.4525 36.0014 67 36.0014ZM116.565 58.9379 121.905 61.6081 116.565 64.2784Z"/><rect x="193.5" y="41.5" width="15" height="10" stroke="#507E32" stroke-width="1.33511" stroke-miterlimit="8" fill="#70AD47"/><rect x="193.5" y="56.5" width="15" height="10" stroke="#507E32" stroke-width="1.33511" stroke-miterlimit="8" fill="#70AD47"/><rect x="193.5" y="71.5" width="15" height="10" stroke="#507E32" stroke-width="1.33511" stroke-miterlimit="8" fill="#70AD47"/><path d="M0-1.00134 29.2004-1.00134 29.2004 15.4366 28.1991 14.4353 52.3928 14.4353 52.3928 16.438 27.1977 16.438 27.1977 0 28.1991 1.00134 0 1.00134ZM51.0577 12.7664 56.3981 15.4366 51.0577 18.1069Z" transform="matrix(1 0 0 -1 137 61.4367)"/><path d="M0-1.00134 29.2004-1.00134 29.2004 0.259769 28.1991-0.741566 52.3928-0.741566 52.3928 1.2611 27.1977 1.2611 27.1977 0 28.1991 1.00134 0 1.00134ZM51.0577-2.41046 56.3981 0.259769 51.0577 2.93Z" transform="matrix(1 0 0 -1 137 61.2597)"/><path d="M137 59.9986 166.2 59.9986 166.2 75.8863 165.199 74.8849 189.393 74.8849 189.393 76.8876 164.198 76.8876 164.198 61 165.199 62.0013 137 62.0013ZM188.058 73.216 193.398 75.8863 188.058 78.5565Z"/><path d="M208 46 224.536 46 224.536 61.2158 241.073 61.2158" stroke="#000000" stroke-width="2.00267" stroke-miterlimit="8" fill="none" fill-rule="evenodd"/><path d="M208 61 224.536 61 224.536 61.0389 241.073 61.0389" stroke="#000000" stroke-width="2.00267" stroke-miterlimit="8" fill="none" fill-rule="evenodd"/><path d="M0 0 16.5365 0 16.5365 15.1072 33.073 15.1072" stroke="#000000" stroke-width="2.00267" stroke-miterlimit="8" fill="none" fill-rule="evenodd" transform="matrix(1 0 0 -1 208 76.1071)"/><path d="M67 46.9986 95.4538 46.9986 95.4538 61.1938 94.4525 60.1925 117.9 60.1925 117.9 62.1952 93.4512 62.1952 93.4512 48 94.4525 49.0013 67 49.0013ZM116.565 58.5236 121.905 61.1938 116.565 63.8641Z"/><path d="M0-1.00134 28.4539-1.00134 28.4539 0.220346 27.4526-0.780989 50.8997-0.780989 50.8997 1.22168 26.4512 1.22168 26.4512 0 27.4526 1.00134 0 1.00134ZM49.5646-2.44988 54.905 0.220346 49.5646 2.89057Z" transform="matrix(1 0 0 -1 67 61.2203)"/><path d="M0-1.00134 28.4538-1.00134 28.4538 13.6347 27.4525 12.6333 50.8997 12.6333 50.8997 14.636 26.4512 14.636 26.4512 0 27.4525 1.00134 0 1.00134ZM49.5646 10.9644 54.905 13.6347 49.5646 16.3049Z" transform="matrix(1 0 0 -1 67 74.6346)"/><path d="M0-1.00134 28.4538-1.00134 28.4538 27.0488 27.4525 26.0474 50.8997 26.0474 50.8997 28.0501 26.4512 28.0501 26.4512 0 27.4525 1.00134 0 1.00134ZM49.5646 24.3785 54.905 27.0488 49.5646 29.719Z" transform="matrix(1 0 0 -1 67 88.0487)"/></g></svg>